<?xml version="1.0" encoding="utf-8"?>
<!-- Generator: Adobe Illustrator 27.4.1, SVG Export Plug-In . SVG Version: 6.00 Build 0)  -->
<svg version="1.1" id="Layer_1" xmlns="http://www.w3.org/2000/svg" xmlns:xlink="http://www.w3.org/1999/xlink" x="0px" y="0px"
	 viewBox="0 0 1920 1920" style="enable-background:new 0 0 1920 1920;" xml:space="preserve">
<style type="text/css">
	.st0{fill:#28ABE2;}
</style>
<path class="st0" d="M1523.83,935.23c-136.33-64.59-299.21-6.43-363.8,129.91c-9.43,19.9-16.16,40.37-20.51,61.02l158.52,75.11
	c-3.86-21.82-1.31-44.97,8.89-66.53c26.15-55.2,92.09-78.75,147.29-52.6c55.2,26.15,78.75,92.1,52.6,147.3
	c-25.98,54.83-91.21,78.37-146.19,53.05l-292.71-138.68l0.05-0.11l-0.63-0.3l144.12-304.28c53.48-133.01-5.27-286.31-136.54-348.5
	c-136.33-64.59-299.21-6.44-363.8,129.9c-64.59,136.33-6.43,299.21,129.9,363.8c19.91,9.43,40.38,16.16,61.03,20.5l75.11-158.53
	c-21.82,3.86-44.98,1.32-66.52-8.89c-55.2-26.15-78.75-92.1-52.6-147.29c26.15-55.2,92.11-78.75,147.3-52.6
	c54.83,25.98,78.37,91.22,53.04,146.19l-137.54,290.3L614.78,929.04c-133.01-53.48-286.32,5.26-348.5,136.53
	c-64.59,136.33-6.44,299.21,129.9,363.8c136.33,64.59,299.21,6.43,363.8-129.9c9.43-19.9,16.16-40.38,20.5-61.02l-158.53-75.1
	c3.86,21.81,1.32,44.98-8.89,66.52c-26.15,55.2-92.09,78.75-147.29,52.6c-55.2-26.15-78.75-92.1-52.6-147.3
	c25.98-54.83,91.22-78.37,146.19-53.05l292.08,138.38l-0.05,0.11l146.5,69.41l0.01-0.02l307.31,145.56
	c133.01,53.48,286.31-5.27,348.5-136.53C1718.32,1162.7,1660.16,999.83,1523.83,935.23z"/>
</svg>
