<?xml version="1.0" encoding="UTF-8"?>
<svg width="468.61" height="310.03" version="1.1" viewBox="0 0 468.61 310.03" xmlns="http://www.w3.org/2000/svg" xmlns:cc="http://creativecommons.org/ns#" xmlns:dc="http://purl.org/dc/elements/1.1/" xmlns:rdf="http://www.w3.org/1999/02/22-rdf-syntax-ns#">
 <g transform="translate(-13.297 -109.62)">
  <path d="m13.523 109.63c-0.35547 0.082-0.29688 0.29297 0.21094 0.81641 0.50781 0.52734 3.2578 3.6094 5.0977 5.7188 0.57812 0.65625 1.2344 1.3984 1.4609 1.6562 0.23047 0.25781 0.89844 1.0508 1.4922 1.7578 0.58984 0.71094 1.3477 1.5938 1.6719 1.9609 0.32812 0.36719 1.1836 1.375 1.918 2.25 0.72656 0.86719 1.5898 1.8828 1.918 2.25 0.32422 0.36719 1.0391 1.207 1.5977 1.875 0.55078 0.66406 1.3008 1.5391 1.668 1.957 0.35938 0.41016 0.83984 0.97656 1.0586 1.25 0.22266 0.27344 0.73437 0.875 1.125 1.3242 1.4492 1.668 1.9922 2.3008 3.0078 3.5156 0.57422 0.67578 1.3242 1.5508 1.668 1.9453 0.625 0.70703 3.8398 4.4805 4.7812 5.625 0.27734 0.32421 1.0273 1.207 1.6758 1.9648 0.64062 0.75781 1.582 1.8594 2.082 2.457 0.95312 1.1328 1.3281 1.5781 2.4102 2.8281 0.83203 0.94921 3.4336 3.6992 3.7148 3.9219 0.11719 0.0937 0.46094 0.42578 0.75 0.74219 1.2109 1.2773 4.75 3.9258 7.3359 5.4688 2.332 1.3906 6.1055 3.125 8.625 3.9414 1.5234 0.50782 5.6719 1.4258 7.75 1.7148 2.625 0.375 0.39062 0.36719 63.707 0.39062 40.242 0.0273 60.707 0.0586 61.367 0.11719 2.543 0.21875 4.2148 0.86719 5.5742 2.1602 1.6328 1.5508 2.5742 3.2656 3.0352 5.5508 0.13281 0.67187 0.14844 1.2422 0.14063 5.875v5.125l-0.26563 1.332c-0.22656 1.1602-0.3164 1.4492-0.71094 2.25-0.90625 1.8516-2.3008 3.3086-3.9414 4.1484-0.39063 0.20312-2.125 0.71093-2.7148 0.80078-0.33593 0.0508-22.242 0.10156-58.566 0.13281-38.895 0.043-58.078 0.0937-58.145 0.14453-0.28125 0.23047-0.06641 0.57422 1.418 2.2578 0.27344 0.3086 0.69141 0.80079 0.92578 1.0898 0.23437 0.29297 0.93359 1.1094 1.5586 1.8086 0.61719 0.70703 1.4492 1.6758 1.8477 2.1602 0.40234 0.48047 1.1016 1.3086 1.5586 1.832 0.46094 0.52344 1.0664 1.2344 1.3594 1.5742 0.28516 0.34375 0.91016 1.0742 1.375 1.625 0.47656 0.55859 1.3438 1.5664 1.918 2.2578 0.58203 0.68359 1.625 1.9023 2.3086 2.7109 0.69141 0.79687 1.4141 1.6641 1.625 1.9141 0.19922 0.25 0.82422 0.98438 1.3828 1.625 0.55078 0.64453 1.2656 1.4844 1.582 1.875 0.31641 0.39453 1.0274 1.2344 1.5742 1.8672 0.55078 0.64062 1.2422 1.4492 1.543 1.8008s0.93359 1.1016 1.418 1.668c0.48047 0.5664 1.1172 1.3086 1.4062 1.6562 0.29297 0.35156 1.1172 1.3164 1.8359 2.1602 0.71484 0.83985 1.7656 2.082 2.3398 2.7656 0.57422 0.67578 1.4766 1.7344 2 2.3398 0.53516 0.61719 1.1992 1.4024 1.4844 1.7422 0.28125 0.34375 0.84765 1.0078 1.25 1.4766 0.39843 0.46485 1.3008 1.543 2.0078 2.375 0.70703 0.83985 1.5312 1.8086 1.8398 2.1484 0.30078 0.34375 0.86719 1 1.25 1.4609 4.5352 5.375 8.4414 8.7969 13.25 11.598 1.5781 0.91797 2.0859 1.1758 3.9766 2.0195 2.4766 1.0898 5.1406 2.0078 7.668 2.625 1.8086 0.4414 3.2227 0.65625 6.3984 0.97265 1.1328 0.11719 12.375 0.19141 32.918 0.22656 13.832 0.0156 13.539 8e-3 14.934 0.47266 1.1055 0.375 2.5234 1.1758 3.4062 1.9258 1.2578 1.0664 2.25 2.957 2.6914 5.1602 0.39062 1.9219 0.375-1.3008 0.35156 78.266-8e-3 41.398 0 75.352 0.0312 75.441 0.0937 0.27344 0.28516 0.19141 0.91016-0.39844 1.3008-1.25 3.543-3.2344 6.5586-5.8086 0.46484-0.40235 0.86719-0.75 3.4492-2.9922 0.64062-0.55078 1.3906-1.2188 1.668-1.4766 0.27344-0.25 0.83984-0.74219 1.25-1.0742 0.41406-0.33984 1.0898-0.91797 1.5078-1.293 1.3906-1.2227 1.8906-1.6562 3.1562-2.75 0.69141-0.59766 1.7109-1.4727 2.25-1.957 0.54297-0.48438 1.3438-1.1758 1.7852-1.543 0.44922-0.36719 1.1484-0.96484 1.5664-1.332 1.5156-1.3398 2.5-2.1992 3.2344-2.8086 0.41406-0.33985 1.0156-0.85938 1.332-1.1562 0.32422-0.29297 1.207-1.0586 1.957-1.7031 0.75-0.64062 1.7031-1.4648 2.1172-1.832 0.41797-0.36719 1.375-1.1914 2.125-1.832 0.75781-0.64453 1.8242-1.5586 2.375-2.043 1.7344-1.5234 2.4922-2.1836 3.5859-3.125 0.58203-0.50781 1.375-1.1914 1.7383-1.5156 0.375-0.33593 1.1172-0.96875 1.6445-1.418 0.52344-0.44922 1.5586-1.3398 2.2812-1.9844 0.72656-0.64062 1.7266-1.5 2.2109-1.9062 0.89062-0.75 2.0469-1.7578 3.457-3.0156 0.41797-0.375 1.0234-0.90235 1.3594-1.168 0.32422-0.27735 1.125-0.95703 1.7734-1.5352 0.64062-0.57422 1.6172-1.4141 2.1602-1.875 1.2656-1.0742 2.5976-2.2305 3.5469-3.0898 0.41797-0.375 1-0.88282 1.3008-1.125 0.3086-0.25 0.85156-0.71875 1.2188-1.0352 1.3906-1.2305 3.1328-2.7422 3.7656-3.2734 0.35937-0.30859 1.1758-1.0078 1.8086-1.5586 0.625-0.55078 1.6094-1.3906 2.1641-1.875 0.5586-0.48438 1.4024-1.2148 1.8672-1.625 0.46875-0.41797 1.3086-1.1406 1.875-1.625 0.55859-0.48438 1.5195-1.3164 2.1328-1.8516 1.0938-0.94922 1.5859-1.375 3.7852-3.2656 0.58984-0.50781 1.3086-1.1328 1.582-1.3906 0.27734-0.25782 1.0664-0.94922 1.7578-1.543 0.69532-0.58985 1.7774-1.5234 2.4102-2.0742 4.7578-4.1406 7.9492-6.418 12.332-8.7656 5.0078-2.6914 11.617-4.8438 17.086-5.5664 4.6992-0.625 3.6328-0.59375 24.375-0.66016 6.7969-0.0156 11.133-0.0664 11.707-0.11719 0.50781-0.0508 1.6016-0.13281 2.4336-0.18359 3.3672-0.19141 6.1758-0.75781 10.023-2.0156 4.2773-1.3984 9.2266-3.9492 11.992-6.1914 1.0664-0.85156 3.0508-2.5898 4.0938-3.5742 1.4492-1.375 12.664-12.574 12.664-12.652 0-0.0312 0.0352-0.0664 0.0859-0.0664 0.10547 0 41.781-41.656 41.906-41.906 0.0742-0.13281 0.0859-0.21875 0.0273-0.27734-0.0586-0.0586-18.102-0.0899-56.242-0.0899-66.277-8e-3 -78.441-0.043-80.691-0.25-1.8086-0.16797-2.6836-0.30859-4.0274-0.64843-2.4805-0.61719-5.2891-1.9024-7.7656-3.543-1.2344-0.8086-2.1328-1.5508-3.332-2.7266-0.55078-0.53125-1.0274-0.97265-1.0586-0.97265-0.043 0-0.0664-0.0508-0.0664-0.10938 0-0.0586-0.17578-0.27343-0.38281-0.47656-1.0195-1-2.8438-3.6992-3.793-5.625-0.60938-1.2305-1.5274-3.5664-1.8672-4.7422-0.18359-0.65625-0.58984-2.8984-0.77344-4.2578-0.13672-1-0.14453-2.8164-0.14453-23.789 0-23.926 0-24.203 0.375-27.133 0.30078-2.3672 0.80078-4.0508 1.9922-6.7344 1.1328-2.5508 2.1172-4.0742 4.1016-6.3516 0.97266-1.1172 1.1484-1.2891 2.4258-2.3828 1.375-1.1914 2.2305-1.8164 3.3828-2.5078 3.5234-2.125 7.2305-3.3594 11.105-3.7188 0.66016-0.0664 13.219-0.0977 40.168-0.10547 44.234-0.0273 60.117-0.0742 61.867-0.21875 3.793-0.3164 6.75-0.88281 9.9102-1.9062 5.082-1.6523 10.238-4.4609 14.047-7.6445 1.7422-1.457 7.9609-7.3906 8.3359-7.9492 0.0664-0.0977 0.15625-0.18359 0.21484-0.18359 0.10156 0 0.86719-0.81641 0.86719-0.92187 0-0.0352 0.0586-0.0781 0.125-0.0937 0.13281-0.0234 13.543-13.391 13.543-13.5 0-0.043 0.0469-0.0664 0.10547-0.0664 0.0586 0 2.543-2.4336 5.5195-5.418 2.9726-2.9726 5.4414-5.4219 5.4726-5.4336 0.0352-0.0156 2.5859-2.5391 5.668-5.6133 3.082-3.0703 5.8984-5.8203 6.25-6.1016 0.60157-0.48437 0.82422-0.78515 0.69141-0.91796-0.125-0.125-4.2656-0.15625-25.625-0.17579-12.309-8e-3 -23.457-0.0312-24.793-0.0469-1.3242-0.0273-16.324-0.0586-33.332-0.0859-66.977-0.0898-87.617-0.125-94.457-0.16406-3.918-0.0273-22.258-0.0586-40.75-0.0859-18.492-0.0234-54.285-0.082-79.543-0.125-25.25-0.0391-62.602-0.0977-83-0.125-20.391-0.0234-48.242-0.0586-61.875-0.0742-13.633-0.0234-24.875-0.0234-24.977 0z"/>
 </g>
</svg>
